<?xml version="1.0" standalone="no"?>
<!DOCTYPE svg PUBLIC "-//W3C//DTD SVG 20010904//EN"
 "http://www.w3.org/TR/2001/REC-SVG-20010904/DTD/svg10.dtd">
<svg version="1.0" xmlns="http://www.w3.org/2000/svg"
 width="512.000000pt" height="512.000000pt" viewBox="0 0 512.000000 512.000000"
 preserveAspectRatio="xMidYMid meet">
<metadata>
Created by potrace 1.11, written by Peter Selinger 2001-2013
</metadata>
<g transform="translate(0.000000,512.000000) scale(0.100000,-0.100000)"
fill="#000000" stroke="none">
<path d="M787 4579 c-98 -23 -184 -93 -230 -189 -21 -43 -22 -59 -22 -317 0
-150 -3 -273 -7 -273 -4 0 -5 -7 -2 -15 9 -23 10 -305 1 -305 -5 0 -5 -5 -2
-11 5 -8 7 -284 4 -594 0 -42 0 -474 1 -490 5 -164 3 -505 -2 -505 -4 0 -5 -7
-2 -15 9 -23 10 -305 1 -305 -5 0 -5 -5 -2 -11 5 -7 8 -581 4 -671 -3 -48 18
-133 44 -182 19 -35 85 -106 98 -106 6 0 7 -5 3 -12 -4 -6 -3 -8 4 -4 6 3 25
-2 43 -13 18 -11 36 -18 41 -15 4 3 8 2 8 -3 0 -9 -4 -9 167 -13 68 -2 125 -2
127 1 2 2 32 2 65 1 43 -3 59 -7 54 -15 -5 -8 -2 -8 8 0 11 9 63 12 183 12 92
-1 168 0 170 2 3 2 32 2 65 1 43 -3 59 -7 54 -15 -5 -9 -2 -8 8 0 22 17 963
17 952 0 -5 -9 -3 -9 8 0 11 9 63 12 183 12 92 -1 168 0 170 2 3 2 32 2 65 1
43 -3 59 -7 54 -15 -5 -8 -2 -8 8 0 11 9 63 12 183 12 92 -1 168 0 170 2 3 2
32 2 65 1 43 -3 59 -7 54 -15 -5 -9 -3 -9 8 0 22 17 666 18 687 1 13 -10 14
-10 8 -1 -4 7 -4 13 1 14 4 0 15 2 23 4 39 10 76 17 87 18 7 0 14 6 17 14 3 7
10 13 16 13 6 0 28 15 48 34 30 29 39 33 52 23 13 -10 13 -10 3 4 -10 12 -9
20 3 38 40 56 50 112 53 276 1 88 2 167 2 175 -1 8 0 44 0 80 1 36 1 70 0 75
0 6 0 129 0 275 0 146 0 273 0 283 -1 31 -1 67 0 80 0 13 0 450 -1 482 0 11 1
49 1 85 1 36 1 70 0 75 0 6 0 129 0 275 0 146 0 273 0 283 -1 31 -1 67 0 80 0
13 0 450 -1 482 0 11 1 49 1 85 1 36 1 72 0 80 0 8 -1 107 -1 220 -1 113 -6
228 -12 255 -5 28 -10 56 -11 63 0 6 -4 12 -9 12 -4 0 -8 6 -8 13 0 30 -90
114 -152 143 l-63 29 -1755 1 c-965 1 -1772 -2 -1793 -7z"/>
<path d="M4390 519 c0 -5 5 -7 10 -4 6 3 10 8 10 11 0 2 -4 4 -10 4 -5 0 -10
-5 -10 -11z"/>
<path d="M1295 511 c-3 -5 -2 -12 3 -15 5 -3 9 1 9 9 0 17 -3 19 -12 6z"/>
<path d="M1373 505 c0 -8 4 -12 9 -9 5 3 6 10 3 15 -9 13 -12 11 -12 -6z"/>
<path d="M1775 511 c-3 -5 -2 -12 3 -15 5 -3 9 1 9 9 0 17 -3 19 -12 6z"/>
<path d="M1853 505 c0 -8 4 -12 9 -9 5 3 6 10 3 15 -9 13 -12 11 -12 -6z"/>
<path d="M2735 511 c-3 -5 -2 -12 3 -15 5 -3 9 1 9 9 0 17 -3 19 -12 6z"/>
<path d="M2813 505 c0 -8 4 -12 9 -9 5 3 6 10 3 15 -9 13 -12 11 -12 -6z"/>
<path d="M3215 511 c-3 -5 -2 -12 3 -15 5 -3 9 1 9 9 0 17 -3 19 -12 6z"/>
<path d="M3293 505 c0 -8 4 -12 9 -9 5 3 6 10 3 15 -9 13 -12 11 -12 -6z"/>
<path d="M3695 511 c-3 -5 -2 -12 3 -15 5 -3 9 1 9 9 0 17 -3 19 -12 6z"/>
<path d="M3773 505 c0 -8 4 -12 9 -9 5 3 6 10 3 15 -9 13 -12 11 -12 -6z"/>
<path d="M765 500 c-3 -6 1 -7 9 -4 18 7 21 14 7 14 -6 0 -13 -4 -16 -10z"/>
<path d="M975 500 c3 -5 8 -10 11 -10 2 0 4 5 4 10 0 6 -5 10 -11 10 -5 0 -7
-4 -4 -10z"/>
<path d="M1250 499 c0 -5 5 -7 10 -4 6 3 10 8 10 11 0 2 -4 4 -10 4 -5 0 -10
-5 -10 -11z"/>
<path d="M1455 500 c3 -5 8 -10 11 -10 2 0 4 5 4 10 0 6 -5 10 -11 10 -5 0 -7
-4 -4 -10z"/>
<path d="M1730 499 c0 -5 5 -7 10 -4 6 3 10 8 10 11 0 2 -4 4 -10 4 -5 0 -10
-5 -10 -11z"/>
<path d="M1970 499 c0 -5 5 -7 10 -4 6 3 10 8 10 11 0 2 -4 4 -10 4 -5 0 -10
-5 -10 -11z"/>
<path d="M2130 499 c0 -5 5 -7 10 -4 6 3 10 8 10 11 0 2 -4 4 -10 4 -5 0 -10
-5 -10 -11z"/>
<path d="M2175 500 c3 -5 8 -10 11 -10 2 0 4 5 4 10 0 6 -5 10 -11 10 -5 0 -7
-4 -4 -10z"/>
<path d="M2290 499 c0 -5 5 -7 10 -4 6 3 10 8 10 11 0 2 -4 4 -10 4 -5 0 -10
-5 -10 -11z"/>
<path d="M2450 499 c0 -5 5 -7 10 -4 6 3 10 8 10 11 0 2 -4 4 -10 4 -5 0 -10
-5 -10 -11z"/>
<path d="M2690 499 c0 -5 5 -7 10 -4 6 3 10 8 10 11 0 2 -4 4 -10 4 -5 0 -10
-5 -10 -11z"/>
<path d="M2895 500 c3 -5 8 -10 11 -10 2 0 4 5 4 10 0 6 -5 10 -11 10 -5 0 -7
-4 -4 -10z"/>
<path d="M3170 499 c0 -5 5 -7 10 -4 6 3 10 8 10 11 0 2 -4 4 -10 4 -5 0 -10
-5 -10 -11z"/>
<path d="M3375 500 c3 -5 8 -10 11 -10 2 0 4 5 4 10 0 6 -5 10 -11 10 -5 0 -7
-4 -4 -10z"/>
<path d="M3650 499 c0 -5 5 -7 10 -4 6 3 10 8 10 11 0 2 -4 4 -10 4 -5 0 -10
-5 -10 -11z"/>
<path d="M3890 499 c0 -5 5 -7 10 -4 6 3 10 8 10 11 0 2 -4 4 -10 4 -5 0 -10
-5 -10 -11z"/>
<path d="M4050 499 c0 -5 5 -7 10 -4 6 3 10 8 10 11 0 2 -4 4 -10 4 -5 0 -10
-5 -10 -11z"/>
<path d="M4210 499 c0 -5 5 -7 10 -4 6 3 10 8 10 11 0 2 -4 4 -10 4 -5 0 -10
-5 -10 -11z"/>
<path d="M1670 436 c7 -7 13 -7 20 0 6 6 3 10 -10 10 -13 0 -16 -4 -10 -10z"/>
<path d="M2630 436 c7 -7 13 -7 20 0 6 6 3 10 -10 10 -13 0 -16 -4 -10 -10z"/>
<path d="M3590 436 c7 -7 13 -7 20 0 6 6 3 10 -10 10 -13 0 -16 -4 -10 -10z"/>
</g>
</svg>
